<?xml version="1.0" encoding="UTF-8" standalone="no"?>
<svg xmlns="http://www.w3.org/2000/svg" viewBox="400 100 1260 400" height="400" width="1200" version="1.1">
	<g transform="matrix(1.25,0,0,-1.25,0,2790)">
		<g transform="translate(712.6572,2059.8428)">
			<path
				style="fill:#e94048; fill-opacity:1; fill-rule:nonzero; stroke:none"
				d="
					m
						0,0
						40.633,-40.634
					c
						17.808,20.939
						16.828,52.392
						-2.949,72.169
						-20.815,20.813
						-54.559,20.813
						-75.372,0
					L
						-75.372,-6.149
						-40.761,-40.761
						0,0
					Z

					m
						-197.651,-46.909
						75.37,-75.37
						34.61,34.609
						-75.371,75.371
						-34.609,-34.61
					z
					M
						40.758,-53.061
						6.15,-87.671
						40.758,-122.279
						75.367,-87.67
						40.758,-53.061
					Z
					M
						0,-12.299
						-40.762,-53.06
					l
						-40.759,40.761
						-34.611,-34.611
						75.37,-75.369
						75.371,75.37
					L
						0,-12.299
					Z
					m
						-169.191,6.15
						-34.611,34.612
						-75.368,-75.371
						75.368,-75.371
						34.611,34.609
						-40.762,40.763
						40.762,40.758
					z
					m
						-81.523,0.002
						-34.609,34.61
						-34.61,-34.612
						34.611,-34.607
						34.608,34.609
					z
					m
						-69.22,-81.523
						34.612,-34.609
						34.61,34.608
						-34.61,34.611
						-34.612,-34.61
					z
				"
				/>
		</g>
	</g>
</svg>
