<?xml version="1.0" encoding="UTF-8" standalone="no"?>
<!DOCTYPE svg PUBLIC "-//W3C//DTD SVG 1.1//EN" "http://www.w3.org/Graphics/SVG/1.1/DTD/svg11.dtd">
<svg width="100%" height="100%" viewBox="0 0 500 155" version="1.1" xmlns="http://www.w3.org/2000/svg" xmlns:xlink="http://www.w3.org/1999/xlink" xml:space="preserve" style="fill-rule:evenodd;clip-rule:evenodd;stroke-linejoin:round;stroke-miterlimit:1.41421;">
	<title>XWP</title>
	<style>
		path {
			fill: #000;
			fill-opacity: 1.0;
			fill-rule: nonzero;
		}
	</style>
	<g id="X">
		<path d="M153.127,6.409L6.391,153.145C4.929,154.607 2.559,154.607 1.096,153.145C-0.366,151.683 -0.366,149.312 1.096,147.85L147.832,1.114C149.294,-0.348 151.665,-0.348 153.127,1.114C154.589,2.576 154.589,4.947 153.127,6.409" />
		<path d="M66.315,60.985L6.432,1.102C4.962,-0.368 2.579,-0.368 1.109,1.102C-0.361,2.572 -0.361,4.955 1.109,6.425L60.992,66.308C62.462,67.778 64.845,67.778 66.315,66.308C67.785,64.838 67.785,62.455 66.315,60.985" />
		<path d="M88.599,93.915L147.816,153.133C149.286,154.602 151.67,154.602 153.139,153.133C154.609,151.664 154.609,149.279 153.139,147.811L93.922,88.592C92.452,87.122 90.069,87.122 88.599,88.592C87.129,90.062 87.129,92.445 88.599,93.915" />
	</g>
	<g id="W">
		<path d="M340.381,147.701L266.911,74.231C265.588,72.908 263.443,72.908 262.12,74.231L188.65,147.701C187.217,149.134 187.005,151.493 188.362,152.999C189.808,154.606 192.286,154.655 193.795,153.145L264.515,82.425L335.236,153.145C336.745,154.655 339.222,154.606 340.669,152.999C342.026,151.493 341.815,149.135 340.381,147.701" />
		<path d="M187.295,120.878L187.295,3.743C187.295,1.676 188.971,0.001 191.039,0.001C193.107,0.001 194.783,1.676 194.783,3.743L194.783,120.878C194.783,122.946 193.107,124.622 191.039,124.622C188.971,124.622 187.295,122.946 187.295,120.878" />
		<path d="M334.14,120.878L334.14,3.743C334.14,1.676 335.816,0.001 337.884,0.001C339.952,0.001 341.628,1.676 341.628,3.743L341.628,120.878C341.628,122.946 339.952,124.622 337.884,124.622C335.816,124.622 334.14,122.946 334.14,120.878" />
	</g>
	<g id="P">
		<path d="M384.771,150.498L384.771,96.105C384.771,94.037 386.447,92.361 388.515,92.361C390.583,92.361 392.259,94.037 392.259,96.105L392.259,150.498C392.259,152.566 390.583,154.242 388.515,154.242C386.447,154.242 384.771,152.566 384.771,150.498" />
		<path d="M450.428,0L388.516,0C386.448,0 384.771,1.677 384.771,3.745L384.771,70.749C384.771,72.817 386.448,74.493 388.515,74.493C390.583,74.493 392.259,72.817 392.259,70.749L392.259,7.487L450.417,7.521C450.421,7.521 450.424,7.52 450.428,7.52C473.616,7.52 492.48,26.385 492.48,49.572C492.48,72.76 473.616,91.625 450.428,91.625L416.48,91.644C414.409,91.645 412.731,93.324 412.731,95.394C412.731,97.466 414.411,99.145 416.482,99.145L449.612,99.145C476.797,99.145 499.54,77.601 499.993,50.42C500.457,22.654 478.088,0 450.428,0" />
	</g>
</svg>
