<svg xmlns="http://www.w3.org/2000/svg" viewBox="0 0 425 240" width="100%" height="100%" version="1.1">
	<title>XWP</title>
	<style>
		path {
			fill: #E94048;
			fill-opacity: 1.0;
			fill-rule: nonzero;
			stroke: none;
			transition: fill 0.25s;
		}
		#x:hover,
		#w:hover,
		#p:hover {
			fill: #4D4D4D;
		}
	</style>
	<g>
		<path id="x" d="
			M 165.593 88.5819
			L 130.982 53.9699
			L 55.6135 129.341
			L 130.982 204.712
			L 165.593 170.103
			L 124.831 129.340
			L 165.593 88.5819
			Z

			M 84.0695 88.5799
			L 49.4605 53.9699
			L 14.8505 88.5819
			L 49.4615 123.189
			L 84.0695 88.5799
			Z

			M 14.8495 170.103
			L 49.4615 204.712
			L 84.0715 170.104
			L 49.4615 135.493
			L 14.8495 170.103
			Z
		" />

		<path id="w" d="
			M 137.132 129.342
			L 212.502 204.712
			L 247.113 170.103
			L 171.742 94.7319
			L 137.132 129.342
			Z

			M 334.784 94.7319
			L 294.022 135.493
			L 253.263 94.7319
			L 218.651 129.343
			L 294.022 204.712
			L 369.392 129.342
			L 334.784 94.7319
			Z
		" />

		<path id="p" d="
			M 334.784 82.4329
			L 375.416 123.067
			C 393.224 102.128 392.245 70.6749 372.468 50.8979
			C 351.653 30.0849 317.909 30.0849 297.096 50.8979
			L 259.411 88.5819
			L 294.022 123.194
			L 334.784 82.4329
			Z

			M 375.541 135.494
			L 340.933 170.104
			L 375.541 204.712
			L 410.151 170.103
			L 375.541 135.494
			Z
		" />
	</g>
</svg>
