<svg xmlns="http://www.w3.org/2000/svg" viewBox="-225 -50 200 190" width="938" height="406" version="1.1">
	<title>XWP</title>
	<style>
		path {
			fill: #E94048;
			fill-opacity: 1.0;
			fill-rule: nonzero;
			stroke: none;
			transition: fill 0.25s;
		}
		#x:hover,
		#w:hover,
		#p:hover {
			fill: #4D4D4D;
		}
	</style>
	<g>
		<path id="x" d="
			M -169.191 6.149
			L -203.802 -28.463
			L -279.17 46.908
			L -203.802 122.279
			L -169.191 87.67
			L -209.953 46.907
			L -169.191 6.149
			Z

			M -250.714 6.147
			L -285.323 -28.463
			L -319.933 6.149
			L -285.322 40.756
			L -250.714 6.147
			Z

			M -319.934 87.67
			L -285.322 122.279
			L -250.712 87.671
			L -285.322 53.06
			L -319.934 87.67
			Z
		" />

		<path id="w" d="
			M -197.651 46.909
			L -122.281 122.279
			L -87.671 87.67
			L -163.042 12.299
			L -197.651 46.909
			Z

			M 0 12.299
			L -40.762 53.06
			L -81.521 12.299
			L -116.132 46.91
			L -40.762 122.279
			L 34.609 46.909
			L 0 12.299
			Z
		" />

		<path id="p" d="
			M 0 0
			L 40.633 40.634
			C 58.441 19.695 57.461 -11.758 37.684 -31.535
			C 16.869 -52.348 -16.875 -52.348 -37.688 -31.535
			L -75.372 6.149
			L -40.761 40.761
			L 0 0
			Z

			M 40.758 53.061
			L 6.15 87.671
			L 40.758 122.279
			L 75.367 87.67
			L 40.758 53.061
			Z
		"/>
	</g>
</svg>
